<svg width="140" height="34" viewBox="0 0 140 34" fill="none" xmlns="http://www.w3.org/2000/svg">
<path fill-rule="evenodd" clip-rule="evenodd" d="M17.0571 0C52.6032 0.00701923 88.146 -0.00350961 123.692 0.00701923C127.372 -0.0105288 131.039 1.32663 133.905 3.73423C137.676 6.85779 140.027 11.7993 139.997 16.8391C140.078 20.991 138.574 25.1359 135.927 28.2313C132.892 31.8638 128.321 33.966 123.712 33.9871C89.2796 33.9976 54.8469 33.9871 20.4142 33.9906C17.5112 33.9696 14.5409 34.1907 11.7253 33.2817C6.45076 31.7129 2.10126 27.1714 0.634605 21.6508C-0.499023 17.6709 -0.0852655 13.2979 1.64713 9.57072C3.87066 4.72043 8.43209 1.14062 13.5183 0.252692C14.6855 0.045625 15.8764 0 17.0571 0Z" fill="black"/>
<path d="M131.014 19.5002C131.014 24.1947 127.208 28.0002 122.514 28.0002C117.819 28.0002 114.014 24.1947 114.014 19.5002C114.014 17.009 115.085 14.7681 116.793 13.2134C118.719 13.9448 118.945 15.921 121.148 15.921C125.471 15.921 126.583 17.9385 130.943 18.4024C130.99 18.7618 131.014 19.1282 131.014 19.5002Z" fill="#FF671F"/>
<g clip-path="url(#clip0_307_24574)">
<path d="M115.058 12.6598L115.116 13.8188C115.116 13.8188 115.372 13.9623 115.59 14.0221C115.808 14.0816 117.018 14.0051 117.018 14.0051C117.018 14.0051 117.876 15.2775 117.729 15.3032C117.581 15.3287 117.005 15.3663 117.005 15.3663C117.005 15.3663 117.616 15.4472 118.308 15.4071C119 15.3667 119.633 15.7826 120.094 16.3199C120.555 16.8571 120.587 17.2546 120.989 17.466C121.39 17.677 125.24 19.1649 125.24 19.1649C125.24 19.1649 125.982 18.6299 125.932 18.6108C125.882 18.5918 126.2 18.5379 126.257 19.1432C126.313 19.7484 126.336 19.839 126.397 19.9204C126.458 20.0019 126.529 20.0872 126.529 20.0872L126.717 20.1352L127.017 19.5257L127.072 19.0209L127.388 20.0872L127.645 20.1964C127.645 20.1964 128.859 18.9065 128.874 18.8654C128.89 18.8244 129.103 18.6257 129.103 18.6257C129.103 18.6257 129.152 18.8895 129.642 19.3796C130.132 19.8694 130.3 20.0621 130.3 20.0621L130.628 20.1073C130.628 20.1073 130.246 18.3948 130.157 18.3263C130.069 18.2575 128.186 17.2964 127.288 17.036C126.389 16.7759 116.341 13.251 116.341 13.251L115.057 12.6595L115.058 12.6598Z" fill="#379424"/>
<path d="M126.154 18.2647L126.503 19.8167L126.688 20.1312C126.833 20.1492 126.983 20.1655 127.141 20.179L127.181 19.1489L127.648 20.2134C127.873 20.2249 128.112 20.2329 128.37 20.2369C129.026 20.2472 129.584 20.2288 130.06 20.1826C129.894 20.0012 129.307 19.3175 129.105 18.5541C129.105 18.5541 129.993 19.6687 130.629 20.1076C131.824 19.9024 132.359 19.4593 132.587 18.7906C132.587 18.7906 131.994 18.4845 131.181 18.1351C130.367 17.7854 127.688 16.1235 127.408 15.6156C127.128 15.1077 121.919 13.0457 120.821 13.0295C120.821 13.0295 118.357 13.4966 116.912 13.148C115.468 12.7995 114.912 12.1864 114.908 13.0281C114.906 13.2762 114.965 13.5473 115.08 13.8148C115.092 13.8162 115.104 13.8181 115.117 13.819C115.592 13.8451 116.895 13.847 116.895 13.847C116.895 13.847 115.526 14.1794 115.325 14.2579C115.646 14.724 116.146 15.1294 116.798 15.3127C118.01 15.6528 119.351 14.7183 119.999 15.6068C120.646 16.4953 120.33 17.7402 122.564 18.7102C123.857 19.2723 124.641 19.6802 125.628 19.9327L126.154 18.2645L126.154 18.2647Z" fill="#379424"/>
<g style="mix-blend-mode:overlay" opacity="0.25">
<path d="M122.159 15.8671C122.728 15.2776 123.398 14.6919 121.877 14.709C121.877 14.709 119.823 14.5929 118.553 15.126C118.326 15.2215 118.153 15.2889 118.029 15.3415C118.831 15.2307 119.568 15.0161 119.998 15.6066C120.439 16.2117 120.434 16.982 121.091 17.7179C121.326 17.2174 121.743 16.2983 122.159 15.8668L122.159 15.8671Z" fill="white"/>
</g>
<g style="mix-blend-mode:overlay" opacity="0.2">
<path d="M128.37 20.237C129.01 20.2469 129.555 20.2295 130.023 20.186C130 20.1447 129.976 20.102 129.951 20.058C129.759 19.8303 129.429 19.3972 129.222 18.8951C128.823 18.3166 128.343 17.7089 127.808 17.2103C126.284 15.7899 125.604 15.4962 125.523 17.4274C125.479 18.4834 125.457 19.317 125.442 19.8828C125.503 19.9002 125.565 19.9169 125.628 19.9328L126.154 18.2646L126.503 19.8167L126.689 20.1312C126.833 20.1491 126.983 20.1654 127.142 20.1789L127.182 19.1489L127.648 20.2133C127.873 20.2248 128.113 20.2328 128.37 20.2368L128.37 20.237Z" fill="white"/>
</g>
<g style="mix-blend-mode:overlay" opacity="0.24">
<path d="M126.687 20.1312C126.832 20.1492 126.982 20.1654 127.141 20.179L127.181 19.1489L127.647 20.2133C127.872 20.2249 128.112 20.2329 128.369 20.2368C129.025 20.2471 129.583 20.2287 130.059 20.1826C129.894 20.0011 129.307 19.3174 129.104 18.554C129.104 18.554 129.992 19.6686 130.629 20.1076C131.823 19.9023 132.359 19.4593 132.587 18.7906C132.587 18.7906 132.369 18.6782 132.017 18.512C131.923 18.6759 131.764 18.8506 131.628 19.0144C131.374 19.3209 130.81 19.807 130.153 19.3644C129.496 18.9217 129.025 18.0772 128.898 17.9588C128.771 17.8403 128.881 18.3202 129.116 18.9699C129.35 19.6197 129.36 19.956 128.833 19.9835C128.307 20.0107 127.723 19.9636 127.436 19.5394C127.15 19.1154 127.068 18.3835 127.058 19.1328C127.048 19.8822 126.73 19.8139 126.589 19.4619C126.447 19.1106 126.215 17.4561 125.976 17.9955C125.736 18.5348 125.773 19.1153 125.432 19.4234C125.091 19.7316 123.578 18.9648 122.301 18.2514C121.024 17.5377 121.03 16.6643 120.962 15.6221C120.894 14.5805 119.011 14.9155 118.031 15.0502C117.051 15.1852 116.377 14.6487 116.185 14.2953C116.089 14.119 116.318 14.0098 116.522 13.9384C116.101 14.0426 115.457 14.2059 115.324 14.2576C115.645 14.7238 116.145 15.1292 116.797 15.3124C118.008 15.6525 119.35 14.718 119.997 15.6065C120.645 16.4951 120.329 17.74 122.562 18.71C123.856 19.2721 124.64 19.68 125.626 19.9325L126.153 18.2643L126.502 19.8163L126.687 20.1308L126.687 20.1312Z" fill="white"/>
<path d="M115.116 13.819C115.505 13.8403 116.451 13.8455 116.779 13.8465C116.803 13.8305 116.785 13.8182 116.697 13.8069C116.287 13.756 115.602 13.5656 115.446 13.2082C115.331 12.9465 115.768 12.8851 116.01 12.8711C115.229 12.587 114.91 12.391 114.906 13.0278C114.905 13.2759 114.964 13.5471 115.079 13.8145C115.091 13.8159 115.103 13.8178 115.116 13.8187L115.116 13.819Z" fill="white"/>
</g>
<path d="M120.821 13.0294C120.821 13.0294 120.194 13.4333 123.448 14.8314C126.701 16.2298 127.364 16.0405 127.574 15.7993C127.784 15.5579 128.12 12.3941 128.646 10.908C129.172 9.42222 129.958 9.11876 130.184 9.04391C130.409 8.96932 131.964 8.71772 132.496 9.08056C133.028 9.44366 132.804 10.9641 132.711 11.2099C132.617 11.4557 132.201 11.6179 131.96 11.5262C131.719 11.4344 130.963 11.3476 130.855 10.9053C130.747 10.4629 130.406 11.2562 130.665 11.716C130.924 12.1756 131.553 12.6964 132.583 12.6866C133.612 12.6764 134.18 11.2867 134.284 10.8047C134.389 10.3227 134.269 8.14939 133.027 7.47613C131.785 6.80261 131.148 6.92202 128.715 6.4777C126.282 6.03364 124.612 7.72708 123.4 9.15235C122.187 10.5779 120.816 12.6259 120.821 13.029L120.821 13.0294Z" fill="#379424"/>
<path opacity="0.35" d="M128.646 10.9078C128.83 10.389 129.045 10.0149 129.257 9.74367C129.212 9.77367 129.158 9.7895 129.124 9.73623C129.054 9.62682 128.894 9.83436 128.719 9.78849C128.544 9.74236 128.611 9.91261 128.372 9.87345C128.134 9.8343 128.285 10.0488 127.919 9.98582C127.919 9.98582 127.822 10.1836 127.529 10.0811C127.529 10.0811 127.29 10.319 127.099 10.1536C127.099 10.1536 126.947 10.4467 126.661 10.3176C126.661 10.3176 126.358 10.5537 126.111 10.325C126.111 10.325 125.954 10.5756 125.702 10.4381C125.702 10.4381 125.584 10.5892 125.414 10.6075C125.245 10.6259 125.31 10.7228 125.256 10.8369C125.203 10.9506 125.171 10.9801 125.171 10.9801C125.171 10.9801 125.268 11.0997 125.28 11.2798C125.293 11.4602 125.239 11.5221 125.274 11.5357C125.31 11.5492 125.502 11.6843 125.425 11.9132C125.425 11.9132 125.659 12.0439 125.462 12.2164C125.462 12.2164 125.427 12.2547 125.51 12.2761C125.593 12.2976 125.789 12.3832 125.687 12.6434C125.687 12.6434 125.997 12.678 125.914 13.0286C125.914 13.0286 126.295 13.0589 126.305 13.3579C126.305 13.3579 126.46 13.2986 126.601 13.3831C126.741 13.4674 127.021 13.2125 127.172 13.3216C127.172 13.3216 127.336 12.9706 127.55 13.1555C127.55 13.1555 127.689 12.8134 127.93 12.9423C127.93 12.9423 128.037 12.7747 128.166 12.8601C128.306 12.1354 128.465 11.4209 128.646 10.9073L128.646 10.9078Z" fill="#070000"/>
<path opacity="0.35" d="M123.399 9.15255C123.199 9.38864 122.994 9.64153 122.791 9.90146C122.816 9.89163 122.842 9.87806 122.869 9.86749C122.996 9.8171 123.008 9.89834 123.125 9.84408C123.243 9.7901 123.367 9.85937 123.43 9.8941C123.492 9.92873 123.559 9.92162 123.661 9.85095C123.764 9.78018 123.98 9.86244 123.98 9.86244C123.98 9.86244 124.026 9.77023 124.23 9.77125C124.434 9.77228 124.393 9.90982 124.457 9.82469C124.522 9.73967 124.656 9.66996 124.748 9.73816C124.841 9.8061 124.903 9.84073 124.947 9.72572C124.991 9.61071 125.232 9.57115 125.297 9.54123C125.362 9.51132 125.539 9.41405 125.539 9.41405C125.508 9.07302 125.752 9.02402 125.752 9.02402L125.726 8.83838C125.699 8.65301 125.873 8.62046 125.873 8.62046L125.832 8.4183C125.79 8.21614 125.983 8.19077 125.984 8.15837C125.986 8.12596 125.984 8.15837 125.992 7.99686C125.999 7.83545 126.14 7.88909 126.058 7.73722C125.976 7.58526 126.144 7.48467 126.144 7.48467C126.144 7.48467 126.081 7.39509 126.203 7.24415C126.325 7.09321 126.383 7.13745 126.351 6.93898C126.336 6.84581 126.403 6.74978 126.478 6.67414C125.195 7.15827 124.198 8.21317 123.399 9.15218L123.399 9.15255Z" fill="#070000"/>
<path opacity="0.23" d="M127.574 15.7993C127.67 15.6885 127.793 14.9622 127.949 14.0647C127.777 14.4004 127.638 14.6699 127.588 14.7538C127.361 15.1281 126.533 15.3247 125.191 14.9335C123.849 14.5423 122.179 13.7365 121.577 13.0297C121.275 12.6748 121.289 12.2426 121.378 11.9002C121.038 12.4428 120.819 12.868 120.821 13.0294C120.821 13.0294 120.194 13.4333 123.447 14.8315C125.409 15.6745 126.428 15.9403 126.975 15.9659C127.131 15.9427 127.293 15.9166 127.465 15.8873C127.512 15.861 127.547 15.8306 127.574 15.7997L127.574 15.7993Z" fill="#070000"/>
<path opacity="0.5" d="M128.646 10.9078C128.822 10.4114 129.026 10.0476 129.23 9.77938C129.031 9.80446 128.495 9.90462 128.112 10.0148C128.112 10.0148 127.572 10.2308 127.011 10.3793C126.45 10.5278 125.746 10.5985 125.596 10.6002C125.447 10.6016 125.175 10.6779 125.234 10.7214C125.293 10.7651 125.337 11.1907 125.415 11.5002C125.492 11.81 125.82 12.6353 126.061 12.9371C126.301 13.2388 126.626 13.3506 126.718 13.3504C126.806 13.3504 127.957 12.6911 128.218 12.5981C128.344 11.9657 128.486 11.3591 128.646 10.9076L128.646 10.9078Z" fill="#020700"/>
<path opacity="0.5" d="M126.709 6.59587C126.657 6.61147 126.606 6.63 126.555 6.6476C125.235 7.11777 124.214 8.19524 123.399 9.15271C123.263 9.3133 123.124 9.48187 122.986 9.65494C123.084 9.744 123.364 9.7392 123.745 9.71481C124.25 9.68233 124.925 9.53056 125.138 9.50974C125.352 9.48891 125.422 9.41318 125.503 9.19891C125.585 8.98463 125.678 8.33702 125.947 7.52044C126.079 7.1215 126.215 6.78917 126.71 6.59544C126.71 6.59544 126.71 6.5957 126.709 6.59577L126.709 6.59587Z" fill="#020700"/>
<path d="M121.112 12.2898C121.112 12.2898 120.781 13.0221 123.058 14.2369C125.335 15.4517 127.494 15.5221 127.737 15.1589C127.737 15.1589 127.927 15.2848 127.875 15.56C127.823 15.8349 128.061 15.8993 127.93 16.0369C127.799 16.1744 126.542 16.501 124.052 15.5001C121.562 14.499 120.485 13.6601 120.525 13.1394C120.525 13.1394 120.428 13.0487 120.645 12.7557C120.862 12.4628 120.992 12.1905 121.112 12.2898Z" fill="#161208"/>
<path d="M128.646 10.9081C128.803 10.4634 128.984 10.1253 129.166 9.86642C128.887 9.912 128.057 10.0597 127.391 10.3113C126.577 10.619 125.334 10.7012 125.334 10.7012C125.334 10.7012 125.573 11.903 125.87 12.4786C126.166 13.0543 126.553 13.2321 126.679 13.2185C126.772 13.2087 127.634 12.8573 128.229 12.5434C128.353 11.9309 128.491 11.3462 128.646 10.9077L128.646 10.9081Z" fill="#256518"/>
<g style="mix-blend-mode:overlay" opacity="0.32">
<path d="M128.647 10.9077C129.173 9.42198 129.958 9.11851 130.184 9.04366C130.363 8.98443 131.379 8.81389 132.057 8.92764C131.7 8.8122 131.221 8.68035 131.003 8.72138C130.842 8.75125 130.592 8.84623 130.329 8.94613C129.985 9.077 129.618 9.21644 129.398 9.23187C129.009 9.2593 128.921 9.40074 128.713 10.1272C128.505 10.854 127.885 13.8409 127.587 14.5335C127.306 15.1885 127.342 15.494 127.686 15.4758C127.897 14.5855 128.205 12.1551 128.647 10.9075L128.647 10.9077Z" fill="white"/>
</g>
<path d="M126.39 6.70998C125.149 7.2082 124.179 8.2355 123.399 9.15265C123.287 9.28491 123.173 9.42271 123.059 9.56357C123.11 9.62919 123.197 9.69103 123.334 9.66276C123.597 9.60857 125.059 9.67091 125.308 9.33387C125.558 8.99658 125.873 7.45058 125.971 7.272C126.036 7.15503 126.25 6.88362 126.39 6.70998Z" fill="#256518"/>
<path d="M125.8 10.8997C125.776 10.8908 125.76 10.8682 125.758 10.841C125.751 10.5921 125.61 10.4331 125.608 10.4313C125.584 10.405 125.586 10.3637 125.613 10.3389C125.639 10.3144 125.68 10.3158 125.704 10.3424C125.711 10.3503 125.879 10.5388 125.887 10.8359C125.888 10.8718 125.86 10.9023 125.825 10.9037C125.816 10.904 125.807 10.9026 125.799 10.8996L125.8 10.8997Z" fill="#AF8758"/>
<path d="M126.155 10.8195C126.123 10.8075 126.106 10.7723 126.116 10.7392C126.162 10.5933 126.064 10.3791 126.023 10.3088C126.005 10.2781 126.015 10.2377 126.046 10.219C126.077 10.2004 126.116 10.2103 126.134 10.2411C126.142 10.2533 126.311 10.5464 126.24 10.777C126.229 10.8117 126.193 10.8312 126.158 10.8204C126.157 10.8199 126.156 10.8194 126.155 10.819L126.155 10.8195Z" fill="#AF8758"/>
<path d="M126.708 10.7008C126.684 10.6914 126.666 10.6671 126.667 10.6385C126.671 10.4632 126.555 10.3013 126.554 10.2999C126.533 10.271 126.539 10.2299 126.568 10.2082C126.597 10.1867 126.638 10.1924 126.659 10.2215C126.665 10.2295 126.802 10.4208 126.796 10.6406C126.795 10.6766 126.766 10.7055 126.73 10.7051C126.722 10.7051 126.715 10.7037 126.708 10.7011L126.708 10.7008Z" fill="#AF8758"/>
<path d="M127.139 10.6055C127.108 10.5935 127.091 10.5586 127.101 10.5255C127.151 10.3638 127.02 10.1449 127.019 10.1426C127 10.1121 127.01 10.072 127.04 10.0527C127.071 10.0335 127.111 10.0428 127.129 10.0733C127.136 10.0842 127.291 10.3442 127.224 10.563C127.214 10.5975 127.177 10.6173 127.143 10.6068C127.142 10.6063 127.141 10.6058 127.139 10.6052L127.139 10.6055Z" fill="#AF8758"/>
<path d="M127.522 10.4916C127.488 10.4789 127.472 10.4412 127.485 10.4076C127.548 10.2413 127.465 10.1009 127.461 10.0951C127.443 10.0646 127.452 10.0244 127.482 10.0051C127.513 9.98569 127.552 9.99464 127.571 10.0248C127.576 10.0331 127.692 10.2243 127.605 10.4533C127.592 10.4872 127.555 10.5043 127.522 10.4916Z" fill="#AF8758"/>
<path d="M128.004 10.3736C127.974 10.3621 127.957 10.3292 127.965 10.2966C128.012 10.1105 127.922 9.99098 127.919 9.98588C127.897 9.95774 127.902 9.91651 127.93 9.89417C127.957 9.87174 127.998 9.87575 128.02 9.90346C128.025 9.91043 128.154 10.076 128.09 10.3278C128.081 10.3629 128.046 10.3843 128.012 10.3755C128.009 10.3748 128.007 10.3742 128.004 10.3733L128.004 10.3736Z" fill="#AF8758"/>
<path d="M128.385 10.1887C128.368 10.1823 128.354 10.1691 128.348 10.1509C128.289 9.99189 128.284 9.88189 128.284 9.87744C128.283 9.84114 128.31 9.81071 128.346 9.80905C128.382 9.80729 128.412 9.83498 128.413 9.87128C128.414 9.87409 128.419 9.96785 128.469 10.104C128.481 10.1378 128.464 10.1758 128.431 10.1887C128.415 10.1948 128.399 10.1942 128.385 10.1887Z" fill="#AF8758"/>
<path d="M128.688 10.318C128.686 10.3174 128.685 10.3168 128.683 10.3162C128.651 10.3009 128.637 10.2621 128.653 10.2294C128.699 10.1304 128.656 9.88988 128.619 9.76181C128.608 9.72733 128.628 9.69079 128.662 9.67996C128.696 9.66913 128.732 9.68859 128.742 9.72308C128.754 9.76203 128.852 10.1085 128.769 10.2845C128.755 10.3159 128.719 10.3301 128.688 10.3184L128.688 10.318Z" fill="#AF8758"/>
<path d="M128.967 10.1792C128.961 10.1768 128.954 10.1735 128.949 10.1689C128.921 10.146 128.917 10.1051 128.94 10.077C129.094 9.8864 129.057 9.77548 129.056 9.77448C129.044 9.74146 129.06 9.70342 129.092 9.68999C129.125 9.6764 129.161 9.69018 129.175 9.72247C129.183 9.74018 129.246 9.90463 129.04 10.1595C129.021 10.1816 128.992 10.189 128.966 10.1793L128.967 10.1792Z" fill="#AF8758"/>
<path d="M125.022 11.1223C125.019 11.1211 125.016 11.1197 125.014 11.118C124.983 11.1005 124.972 11.0604 124.99 11.0289C125.095 10.8423 125.439 10.8794 125.478 10.8841C125.513 10.8886 125.538 10.921 125.533 10.9567C125.528 10.9928 125.496 11.0183 125.461 11.0138C125.365 11.002 125.15 11.0057 125.102 11.0925C125.086 11.121 125.052 11.1331 125.023 11.122L125.022 11.1223Z" fill="#AF8758"/>
<path d="M125.259 11.6144C125.253 11.612 125.247 11.6086 125.242 11.6041C125.214 11.5811 125.21 11.5402 125.233 11.5122C125.322 11.4019 125.619 11.2931 125.653 11.2812C125.687 11.2692 125.723 11.2868 125.735 11.3209C125.747 11.355 125.729 11.3924 125.695 11.4043C125.581 11.4452 125.382 11.5326 125.333 11.5943C125.314 11.6168 125.285 11.6241 125.259 11.6144Z" fill="#AF8758"/>
<path d="M125.381 11.9634C125.367 11.9579 125.354 11.9469 125.347 11.9318C125.33 11.8997 125.344 11.86 125.376 11.8436L125.746 11.6532C125.778 11.6369 125.817 11.6495 125.833 11.6816C125.849 11.7137 125.835 11.7534 125.803 11.77L125.433 11.9605C125.416 11.9691 125.398 11.9696 125.381 11.9634Z" fill="#AF8758"/>
<path d="M125.423 12.2945C125.401 12.2861 125.385 12.2655 125.383 12.2402C125.379 12.2041 125.405 12.1721 125.441 12.1682C125.489 12.1628 125.69 12.0701 125.858 11.9833C125.89 11.967 125.929 11.9795 125.945 12.0116C125.961 12.0437 125.948 12.0833 125.916 12.0997C125.855 12.1313 125.549 12.2883 125.453 12.2987C125.443 12.2997 125.433 12.2983 125.424 12.2949L125.423 12.2945Z" fill="#AF8758"/>
<path d="M125.63 12.7177C125.616 12.7124 125.604 12.7023 125.596 12.6881C125.579 12.6565 125.591 12.6168 125.623 12.5991C125.623 12.5991 125.73 12.5392 126.035 12.3684C126.067 12.351 126.106 12.3623 126.123 12.3938C126.14 12.425 126.128 12.4649 126.097 12.4826C125.791 12.6538 125.684 12.7137 125.684 12.7137C125.666 12.7234 125.647 12.7241 125.63 12.7177Z" fill="#AF8758"/>
<path d="M125.895 13.1343C125.89 13.1324 125.886 13.1298 125.881 13.1268C125.852 13.1063 125.845 13.0658 125.866 13.036C125.935 12.935 126.195 12.8124 126.246 12.7888C126.279 12.7738 126.317 12.7883 126.332 12.8213C126.346 12.8543 126.332 12.893 126.299 12.908C126.184 12.9605 126.008 13.0576 125.971 13.11C125.954 13.1352 125.922 13.1445 125.895 13.1343Z" fill="#AF8758"/>
<path d="M126.269 13.4044C126.244 13.3946 126.227 13.3699 126.229 13.3408C126.239 13.2312 126.473 12.99 126.574 12.8913C126.6 12.8663 126.64 12.8665 126.665 12.8922C126.69 12.9181 126.689 12.9593 126.663 12.9847C126.523 13.1226 126.367 13.3033 126.358 13.3524C126.351 13.3869 126.319 13.413 126.285 13.4085C126.28 13.4077 126.274 13.4065 126.269 13.4046L126.269 13.4044Z" fill="#AF8758"/>
<path d="M127.148 13.3683C127.119 13.3572 127.101 13.3257 127.108 13.2938C127.132 13.1835 126.994 13.029 126.944 12.9836C126.917 12.9595 126.915 12.9182 126.939 12.8912C126.963 12.8641 127.004 12.8613 127.031 12.8852C127.056 12.9084 127.279 13.116 127.235 13.3205C127.227 13.3558 127.192 13.3788 127.157 13.3714C127.154 13.3707 127.151 13.3699 127.148 13.3687L127.148 13.3683Z" fill="#AF8758"/>
<path d="M127.538 13.2289C127.513 13.2191 127.495 13.1929 127.497 13.1638C127.506 13.034 127.405 12.8621 127.365 12.8065C127.344 12.7775 127.35 12.7365 127.379 12.7151C127.408 12.6937 127.448 12.6999 127.469 12.7287C127.476 12.7387 127.64 12.9683 127.626 13.1716C127.624 13.2076 127.593 13.2352 127.557 13.233C127.551 13.2327 127.544 13.2312 127.538 13.2289Z" fill="#AF8758"/>
<path d="M127.898 12.992C127.879 12.985 127.864 12.9698 127.859 12.949C127.825 12.826 127.743 12.6405 127.742 12.6385C127.728 12.6055 127.743 12.5668 127.775 12.5516C127.808 12.5365 127.846 12.5511 127.861 12.5841C127.864 12.5919 127.947 12.78 127.984 12.9119C127.993 12.9465 127.973 12.9832 127.939 12.9931C127.925 12.9973 127.91 12.9964 127.898 12.9917L127.898 12.992Z" fill="#AF8758"/>
<path d="M128.124 12.922C128.099 12.9074 128.086 12.8763 128.095 12.8465C128.133 12.7242 128.084 12.5533 128.063 12.4975C128.05 12.464 128.066 12.4259 128.099 12.4123C128.132 12.3986 128.17 12.4147 128.183 12.4481C128.187 12.4578 128.277 12.6927 128.218 12.8839C128.208 12.9184 128.172 12.9379 128.138 12.9274C128.133 12.9262 128.128 12.9239 128.124 12.9214L128.124 12.922Z" fill="#AF8758"/>
<path d="M123.092 9.92763C123.066 9.91774 123.049 9.89156 123.051 9.86187C123.063 9.70685 123.276 9.47272 123.318 9.42736C123.343 9.40103 123.383 9.39974 123.409 9.42451C123.435 9.44901 123.436 9.49054 123.411 9.51697C123.319 9.61543 123.186 9.79034 123.18 9.87061C123.177 9.9065 123.146 9.93377 123.111 9.93156C123.104 9.93123 123.098 9.92983 123.092 9.92763Z" fill="#AF8758"/>
<path d="M123.5 9.96814C123.473 9.95784 123.456 9.92987 123.459 9.89951C123.473 9.78355 123.583 9.52846 123.595 9.4996C123.609 9.46647 123.649 9.44986 123.68 9.46539C123.713 9.47958 123.728 9.51767 123.714 9.55107C123.682 9.62424 123.598 9.83181 123.588 9.91434C123.583 9.95027 123.551 9.97588 123.515 9.97186C123.51 9.97103 123.505 9.97003 123.5 9.96814Z" fill="#AF8758"/>
<path d="M123.96 9.9131C123.941 9.90591 123.926 9.88964 123.921 9.86816C123.878 9.69472 123.978 9.4243 123.989 9.39413C124.002 9.3605 124.04 9.3433 124.073 9.35589C124.106 9.36848 124.123 9.40626 124.11 9.4399C124.083 9.51143 124.018 9.72216 124.046 9.83543C124.054 9.87048 124.033 9.90615 123.999 9.91525C123.985 9.91872 123.972 9.91787 123.96 9.91327L123.96 9.9131Z" fill="#AF8758"/>
<path d="M124.426 9.87453C124.406 9.86713 124.391 9.85023 124.386 9.82795C124.352 9.67585 124.403 9.39045 124.405 9.37844C124.411 9.34267 124.445 9.31884 124.48 9.32482C124.515 9.33117 124.538 9.36468 124.532 9.40044C124.518 9.47564 124.489 9.69315 124.512 9.79849C124.519 9.83377 124.497 9.86888 124.463 9.87707C124.45 9.88012 124.437 9.87909 124.425 9.87479L124.426 9.87453Z" fill="#AF8758"/>
<path d="M124.877 9.80151C124.868 9.79811 124.86 9.79248 124.853 9.78491C124.74 9.65991 124.74 9.32473 124.74 9.28694C124.74 9.25078 124.77 9.22154 124.805 9.22132C124.841 9.22146 124.869 9.25067 124.869 9.28693C124.868 9.40995 124.888 9.62977 124.949 9.69578C124.973 9.72202 124.971 9.76346 124.944 9.78829C124.926 9.80591 124.9 9.81 124.877 9.80161L124.877 9.80151Z" fill="#AF8758"/>
<path d="M125.896 7.15736C125.875 7.14928 125.859 7.12966 125.856 7.10519C125.851 7.06933 125.876 7.03632 125.912 7.03148C125.95 7.0263 126.293 6.97998 126.449 7.05544C126.481 7.07068 126.494 7.10993 126.479 7.14219C126.463 7.17472 126.425 7.18963 126.393 7.17324C126.288 7.12425 126.022 7.1474 125.928 7.16075C125.917 7.16243 125.906 7.16105 125.896 7.15736Z" fill="#AF8758"/>
<path d="M126.066 6.93456C126.052 6.92938 126.04 6.91919 126.032 6.90503C126.016 6.87358 126.027 6.83379 126.059 6.81635C126.073 6.80856 126.405 6.62613 126.674 6.68189C126.708 6.68901 126.731 6.72346 126.723 6.75898C126.715 6.79433 126.681 6.81697 126.646 6.80985C126.423 6.7635 126.122 6.92886 126.12 6.93083C126.102 6.94049 126.083 6.94121 126.066 6.93483L126.066 6.93456Z" fill="#AF8758"/>
<path d="M125.764 7.46658C125.739 7.4569 125.721 7.43155 125.723 7.40205C125.726 7.36597 125.756 7.33839 125.792 7.34005C125.824 7.34158 126.11 7.35721 126.226 7.40168C126.26 7.41434 126.276 7.452 126.263 7.48562C126.25 7.51924 126.213 7.53646 126.18 7.52389C126.097 7.49219 125.866 7.47459 125.784 7.47052C125.777 7.47036 125.771 7.4686 125.764 7.46631L125.764 7.46658Z" fill="#AF8758"/>
<path d="M125.648 7.7201C125.619 7.70904 125.601 7.67765 125.608 7.6458C125.616 7.61045 125.65 7.58754 125.685 7.59493C125.864 7.63209 126.173 7.70331 126.234 7.76055C126.26 7.78485 126.262 7.82603 126.237 7.85309C126.213 7.8799 126.172 7.88184 126.146 7.85754C126.11 7.83034 125.864 7.76656 125.658 7.72326C125.654 7.7226 125.651 7.72167 125.648 7.72057L125.648 7.7201Z" fill="#AF8758"/>
<path d="M125.534 8.05767C125.506 8.0469 125.489 8.01678 125.494 7.9856C125.501 7.94986 125.534 7.92591 125.569 7.93187C126.056 8.01477 126.082 8.07489 126.095 8.10348C126.109 8.13647 126.094 8.17516 126.062 8.18994C126.033 8.20287 126.001 8.19358 125.983 8.16923C125.941 8.14144 125.726 8.09088 125.546 8.06062C125.542 8.05966 125.538 8.0588 125.534 8.05731L125.534 8.05767Z" fill="#AF8758"/>
<path d="M125.363 8.46748C125.332 8.45541 125.314 8.42016 125.325 8.38701C125.336 8.35242 125.373 8.33327 125.406 8.34433C125.941 8.514 125.971 8.55684 125.983 8.57533C126.003 8.60474 125.997 8.64552 125.967 8.66646C125.941 8.6857 125.905 8.68204 125.883 8.65826C125.841 8.62951 125.585 8.53829 125.367 8.46877C125.366 8.46837 125.365 8.46798 125.363 8.46758L125.363 8.46748Z" fill="#AF8758"/>
<path d="M125.312 8.97121C125.28 8.95895 125.263 8.92263 125.274 8.88914C125.286 8.85485 125.323 8.83644 125.356 8.84793L125.783 8.99449L125.785 8.99519C125.817 9.00745 125.834 9.04377 125.823 9.07726C125.811 9.11155 125.774 9.12986 125.74 9.11837L125.314 8.97191L125.312 8.97111L125.312 8.97121Z" fill="#AF8758"/>
<path d="M125.521 9.5261C125.514 9.5235 125.507 9.51975 125.502 9.51448C125.376 9.40495 125.173 9.24906 125.172 9.24746C125.143 9.22595 125.138 9.18518 125.16 9.15612C125.181 9.12742 125.222 9.1215 125.25 9.14318C125.258 9.14943 125.458 9.30286 125.586 9.41503C125.613 9.43864 125.616 9.47977 125.592 9.50714C125.574 9.52883 125.545 9.53527 125.521 9.526L125.521 9.5261Z" fill="#AF8758"/>
<g style="mix-blend-mode:overlay" opacity="0.31">
<path d="M128.6 6.72026C128.6 6.72026 126.738 6.45146 125.636 7.30675C124.533 8.16204 123.462 9.44644 122.774 11.1409C122.087 12.8349 122.75 13.813 124.686 14.2854C126.621 14.7578 127.002 13.4743 127.398 11.8665C127.793 10.2592 128.571 8.55514 129.221 8.20886C129.871 7.86258 131.674 7.88927 132.526 8.25763C133.379 8.62598 133.186 9.1898 133.299 9.91398C133.412 10.6382 133.469 11.0557 133.703 11.1223C133.936 11.1892 134.057 10.9276 134.132 10.5605C134.207 10.1935 133.858 8.50049 133.36 7.93743C132.862 7.37438 131.371 6.98261 130.649 6.95006C129.928 6.91725 129.273 6.82211 128.6 6.71973L128.6 6.72026Z" fill="white"/>
</g>
<path opacity="0.35" d="M123.875 12.5162C123.875 12.5162 122.582 12.6998 122.197 13.8196C121.813 14.9395 122.318 15.7502 123.496 16.2343C124.477 16.637 125.46 15.9835 125.037 15.8678C124.613 15.7518 123.803 15.5916 123.66 14.7141C123.518 13.8365 123.959 12.9493 124.058 12.7971C124.157 12.6452 124.214 12.4976 123.875 12.5163L123.875 12.5162Z" fill="#070000"/>
<path d="M124.108 12.4483C124.108 12.4483 122.375 12.4755 122.276 14.3003C122.177 16.1164 124.452 16.3884 124.994 15.9782C125.535 15.568 124.405 15.8468 123.888 15.1062C123.477 14.5195 123.427 13.721 124.014 13.0565C124.462 12.5502 124.445 12.4253 124.108 12.448L124.108 12.4483Z" fill="#B56D1F"/>
<path opacity="0.63" d="M123.581 15.7411C123.09 15.5544 122.482 15.1369 122.53 14.2444C122.602 12.9065 123.655 12.6457 124.054 12.592C124.016 12.6385 123.969 12.694 123.91 12.7606C123.27 13.4849 123.21 14.459 123.757 15.2422C123.937 15.4997 124.191 15.6879 124.533 15.8181C124.588 15.839 124.642 15.8571 124.694 15.8731C124.412 15.9195 123.991 15.8967 123.581 15.7408L123.581 15.7411Z" fill="#F9972D"/>
<path d="M123.757 15.2419C123.21 14.4588 123.27 13.4844 123.911 12.7603C123.969 12.6937 124.016 12.6383 124.054 12.5917C123.712 12.6377 122.89 12.8367 122.617 13.7366C122.838 13.3629 123.138 12.942 123.233 13.2218C123.389 13.6821 123.033 14.4545 123.382 15.0093C123.617 15.3827 123.813 15.6838 123.625 15.7562C124.021 15.8976 124.423 15.9181 124.694 15.8734C124.642 15.8574 124.588 15.8393 124.533 15.8183C124.191 15.6882 123.937 15.5 123.757 15.2425L123.757 15.2419Z" fill="#FFA44A"/>
<path opacity="0.64" d="M127.551 15.4218C127.551 15.4218 126.504 15.6202 125.214 15.1805C123.924 14.741 124.006 15.0109 124.667 15.2969C125.329 15.5825 125.57 15.7422 125.445 15.7631C125.32 15.7837 125.867 15.975 126.564 16.0353C127.262 16.0959 128.024 16.0281 127.849 15.9613C127.673 15.8945 127.652 15.8182 127.121 15.804C126.591 15.7897 128.093 15.6277 127.551 15.4218Z" fill="#332A2A"/>
<g style="mix-blend-mode:overlay" opacity="0.31">
<path d="M127.938 6.64537C127.938 6.64537 127.077 6.73815 127.13 7.14351C127.182 7.5486 128.864 7.55819 128.935 8.00543C129.006 8.45294 129.706 7.87845 130.641 7.95365C131.575 8.02912 132.33 8.03572 133 8.53596C133.67 9.0361 133.835 8.78365 133.627 8.42432C133.42 8.06526 132.785 7.47307 132.052 7.22926C131.319 6.98555 128.7 6.72465 127.939 6.64547L127.938 6.64537Z" fill="white"/>
</g>
<g style="mix-blend-mode:overlay" opacity="0.31">
<path d="M132.672 11.5958C132.672 11.5958 131.999 11.8363 131.412 11.4599C130.824 11.0835 130.809 10.9252 130.832 11.2584C130.855 11.5919 131.158 11.8789 131.754 12.0867C132.35 12.2942 132.726 12.3417 132.918 12.033C133.11 11.7244 132.994 11.4891 132.672 11.5958Z" fill="white"/>
</g>
<path opacity="0.56" d="M132.052 7.22929C132.052 7.22929 130.991 6.94866 130.49 6.9866C129.988 7.02471 131.616 7.12902 132.404 7.61965C133.192 8.11011 133.485 8.37435 133.485 8.37435C133.485 8.37435 133.41 7.81342 132.052 7.22892L132.052 7.22929Z" fill="#3BA724"/>
<g style="mix-blend-mode:overlay" opacity="0.31">
<path d="M121.337 14.971C121.337 14.971 119.731 15.1639 119.347 15.2263C119.603 15.2626 119.825 15.3698 119.998 15.607C119.998 15.607 120.578 15.5129 121.111 15.2872C121.644 15.0615 121.919 15.0318 121.337 14.9713L121.337 14.971Z" fill="white"/>
</g>
<path opacity="0.56" d="M133.664 8.53632C133.664 8.53632 133.535 8.45112 133.622 8.73897C133.71 9.02693 134.002 9.57483 134.016 9.48933C134.031 9.40392 133.855 8.64535 133.664 8.53632Z" fill="#3BA724"/>
<g style="mix-blend-mode:overlay" opacity="0.31">
<path d="M132.511 11.6681C132.511 11.6681 132.106 11.7611 131.824 11.6537C131.542 11.5463 131.175 11.3595 131.047 11.2406C130.919 11.1214 131.119 11.4444 131.481 11.6759C131.843 11.9074 132.089 11.9893 132.323 11.9492C132.557 11.9094 132.775 11.6396 132.511 11.6684L132.511 11.6681Z" fill="white"/>
</g>
<g style="mix-blend-mode:overlay" opacity="0.31">
<path d="M128.685 20.2393C128.427 19.6907 128.045 18.9171 127.59 18.125C126.74 16.6427 126.906 17.1757 127.09 17.9035C127.274 18.6314 127.647 20.2135 127.647 20.2135C127.873 20.225 128.112 20.233 128.37 20.237C128.478 20.2386 128.582 20.2394 128.685 20.2393Z" fill="white"/>
</g>
<g style="mix-blend-mode:overlay" opacity="0.77">
<path d="M126.859 15.4945C126.859 15.4945 126.02 15.4711 125.212 15.2378C124.404 15.0042 124.965 15.4402 126 15.5871C127.035 15.734 127.299 15.6125 126.859 15.4946L126.859 15.4945Z" fill="white"/>
</g>
<g style="mix-blend-mode:overlay" opacity="0.77">
<path d="M126.927 15.8901C126.927 15.8901 125.972 15.7241 125.635 15.7191C125.297 15.7141 125.734 15.905 126.469 16.0117C127.204 16.1185 127.354 15.9783 126.927 15.8898L126.927 15.8901Z" fill="white"/>
</g>
<path opacity="0.97" d="M121.005 12.7235C121.005 12.7235 121.14 13.071 121.693 13.5283C122.247 13.9854 122.114 13.9556 122.024 14.1229C121.859 14.4302 121.001 13.8817 120.74 13.4862C120.478 13.0904 120.695 13.2223 121.171 13.6255C121.648 14.0292 121.666 13.7894 121.279 13.4695C120.892 13.1493 120.819 12.5782 121.006 12.7234L121.005 12.7235Z" fill="#332A2A"/>
</g>
<path d="M16.4942 6.45404C20.4625 5.73198 24.7429 7.76147 26.8596 11.3367C27.8827 13.0788 26.3866 15.6796 24.4074 15.3852C23.2937 15.5359 22.5088 14.6211 21.9117 13.7798C20.4558 11.894 17.6917 11.4033 15.6958 12.6196C13.6798 13.7483 12.5392 16.5068 13.3711 18.7747C13.9984 20.9724 16.1856 22.5988 18.3895 22.371C20.1673 22.4516 21.5259 21.0986 22.6363 19.8297C24.1122 18.34 26.8092 19.6089 26.9367 21.6804C27.1413 23.5101 25.5815 24.7965 24.3839 25.8481C20.4625 29.0658 14.3641 28.6487 10.8653 24.9402C7.2861 21.4386 6.689 15.2099 9.55373 11.0458C11.1371 8.60971 13.7133 6.92724 16.4942 6.45404Z" fill="white"/>
<path fill-rule="evenodd" clip-rule="evenodd" d="M48.4656 14.9749C47.4928 9.39468 41.8003 5.35324 36.4767 6.50643C30.8009 7.41076 26.6648 13.8673 28.1844 19.6858C29.2913 25.1223 34.8497 28.971 40.076 27.8809C45.6713 27.0221 49.8242 20.7409 48.4656 14.9749ZM33.3102 17.5196C33.0888 14.9258 35.0176 12.4196 37.4764 12.0445C40.2271 11.4592 43.1153 13.8147 43.2797 16.7379C43.6051 19.6472 41.1496 22.5355 38.3218 22.3883C35.7522 22.546 33.4108 20.173 33.3102 17.5196Z" fill="white"/>
<path d="M50.3571 9.05534C50.2665 6.9172 52.9702 5.4906 54.5535 6.87514C56.7574 8.99225 58.8104 11.2881 60.9472 13.4788C62.9968 11.3652 65.0095 9.20957 67.0725 7.10998C67.8273 6.32833 69.0651 6.06194 70.0278 6.56668C71.0509 7.04338 71.7017 8.24215 71.648 9.40235C71.638 14.6846 71.6547 19.9669 71.638 25.2492C71.6581 26.8826 70.1251 28.3021 68.5686 28.0252C67.2704 27.878 66.2138 26.6197 66.2372 25.2562C66.2171 22.1541 66.2305 19.0485 66.2372 15.9465C65.0665 17.1242 63.926 18.337 62.7653 19.5252C61.873 20.4296 60.4004 20.5523 59.4108 19.7426C58.0758 18.5999 56.9889 17.1768 55.7041 15.9675C55.6672 19.1081 55.7343 22.2487 55.6739 25.3859C55.6806 27.0228 54.0336 28.3617 52.5174 28.0007C51.2863 27.7799 50.2397 26.5461 50.3504 25.2141C50.347 19.8267 50.3336 14.4428 50.3571 9.05534Z" fill="white"/>
<path d="M73.8502 9.15646C73.7999 7.57564 75.1987 6.21914 76.6915 6.31378C80.2842 6.32079 83.8768 6.30677 87.4695 6.32079C88.4557 6.32079 89.4151 6.96224 89.8545 7.88409C90.7166 9.47894 89.5828 11.8344 87.7848 11.88C84.9368 11.9536 82.0822 11.887 79.2342 11.9115C79.2308 13.0612 79.2308 14.2144 79.2342 15.3641C81.6394 15.3746 84.0445 15.3536 86.4497 15.3676C88.1437 15.301 89.6633 17.1307 89.1769 18.8728C88.9086 20.1697 87.6842 21.095 86.4296 21.0389C84.0311 21.0565 81.6327 21.0319 79.2342 21.0424C79.2107 22.5251 79.2745 24.0078 79.2107 25.487C79.1235 27.1975 77.2953 28.4769 75.7455 27.9125C74.9773 27.7268 74.4943 27.0398 74.028 26.4369C73.7093 24.8736 73.867 23.2717 73.8368 21.6909C73.8469 17.5128 73.81 13.3346 73.8502 9.15646Z" fill="white"/>
<path d="M91.2939 9.42469C91.0189 7.57397 92.9108 5.86346 94.6182 6.41377C95.799 6.77129 96.4766 7.92098 97.3454 8.73768C98.6705 10.0381 99.8881 11.4577 101.23 12.7476C103.105 10.8548 104.903 8.8814 106.785 6.99562C107.832 6.00016 109.569 6.14737 110.488 7.25851C111.441 8.30304 111.418 10.0977 110.421 11.1002C108.261 13.389 106.057 15.6358 103.903 17.9352C103.897 20.3713 103.937 22.8074 103.893 25.2435C103.954 26.5509 102.951 27.7567 101.74 27.9845C100.163 28.3701 98.4424 26.9224 98.5564 25.2154C98.5329 22.7898 98.5564 20.3643 98.5497 17.9387C96.8154 16.0319 94.9738 14.2303 93.2295 12.334C92.4445 11.4892 91.3342 10.7251 91.2939 9.42469Z" fill="white"/>
<defs>
<clipPath id="clip0_307_24574">
<rect width="21.7642" height="16.7896" fill="white" transform="translate(117.97) rotate(20.8294)"/>
</clipPath>
</defs>
</svg>
